<?xml version="1.0"?>
<svg xmlns="http://www.w3.org/2000/svg" id="outline" viewBox="0 0 512 512" width="512" height="512"><path d="M328,64H184C91.36426,64,16,139.36426,16,232v16a56.06322,56.06322,0,0,0,56,56H88a24.03032,24.03032,0,0,1,23.895,21.80017l-72.1001,1.80237a24.40509,24.40509,0,0,0,0,48.79492l72.261,1.8064A72.07128,72.07128,0,0,0,184,448H328c92.63574,0,168-75.36426,168-168V232C496,139.36426,420.63574,64,328,64ZM32,352a8.35711,8.35711,0,0,1,8.19531-8.40234L112,341.80273v20.39454l-71.80469-1.79493A8.35711,8.35711,0,0,1,32,352Zm448-72c0,83.813-68.18652,152-152,152H184a56.06322,56.06322,0,0,1-56-56V328a40.04552,40.04552,0,0,0-40-40H72a40.04552,40.04552,0,0,1-40-40V232c0-83.813,68.18652-152,152-152H328c83.81348,0,152,68.187,152,152Z"/><path d="M96,176a40,40,0,1,0,40,40A40.04552,40.04552,0,0,0,96,176Zm0,64a24,24,0,1,1,24-24A24.0275,24.0275,0,0,1,96,240Z"/><path d="M376,216a40,40,0,1,0,40-40A40.04552,40.04552,0,0,0,376,216Zm64,0a24,24,0,1,1-24-24A24.0275,24.0275,0,0,1,440,216Z"/><path d="M160,184a40,40,0,1,0-40-40A40.04552,40.04552,0,0,0,160,184Zm0-64a24,24,0,1,1-24,24A24.0275,24.0275,0,0,1,160,120Z"/><path d="M256,176a40,40,0,1,0-40-40A40.04552,40.04552,0,0,0,256,176Zm0-64a24,24,0,1,1-24,24A24.0275,24.0275,0,0,1,256,112Z"/><path d="M352,184a40,40,0,1,0-40-40A40.04552,40.04552,0,0,0,352,184Zm0-64a24,24,0,1,1-24,24A24.0275,24.0275,0,0,1,352,120Z"/><path d="M436.4375,345.34375l-31.457-20.97119a55.62716,55.62716,0,0,0-42.04492-8.31787l-19.82593,3.96509L256,322.19727V320a32.03635,32.03635,0,0,0-32-32H184a40.04552,40.04552,0,0,0-40,40v48a32.03635,32.03635,0,0,0,32,32h48a32.04626,32.04626,0,0,0,31.46533-26.21069l87.644,2.19091,19.82519,3.96509a56.59469,56.59469,0,0,0,11.09863,1.105,55.6027,55.6027,0,0,0,30.94727-9.42285l31.457-20.97119a7.99959,7.99959,0,0,0,0-13.3125ZM160,340.60229l64-1.59985v25.99512l-64-1.59985Zm80,24.79517V338.60254l16-.4v27.595Zm32-27.595,16-.3999v29.19482l-16-.3999ZM184,304h40a16.01833,16.01833,0,0,1,16,16v2.59741l-79.75366,1.99365A24.03411,24.03411,0,0,1,184,304Zm40,88H176a16.02212,16.02212,0,0,1-15.625-12.58789l78.6748,1.9668A16.01317,16.01317,0,0,1,224,392Zm112-24.20264-32-.79992V337.00256l32-.79992Zm60.10547-1.48242a39.73572,39.73572,0,0,1-30.0332,5.94092L352,369.44153V334.55859l14.07324-2.81445a39.73248,39.73248,0,0,1,30.03223,5.94092L417.57812,352Z"/><path d="M160,232v16a24.0275,24.0275,0,0,0,24,24h41.37305a46.32371,46.32371,0,0,1,32.9707,13.65723A62.21727,62.21727,0,0,0,302.627,304H336a32.03635,32.03635,0,0,0,32-32V256a64.07239,64.07239,0,0,0-64-64H200A40.04552,40.04552,0,0,0,160,232Zm192,24v16a16.01833,16.01833,0,0,1-16,16H302.627a46.32371,46.32371,0,0,1-32.9707-13.65723A62.21727,62.21727,0,0,0,225.37305,256H184a8.00917,8.00917,0,0,1-8-8V232a24.0275,24.0275,0,0,1,24-24H304A48.05468,48.05468,0,0,1,352,256Z"/></svg>
