<svg id="line" height="512" viewBox="0 0 340 340" width="512" xmlns="http://www.w3.org/2000/svg"><path d="m271.71 82.251c.017-.03.024-.062.04-.093a24.639 24.639 0 0 0 5.894-6.542l22.865-36.759a24.263 24.263 0 0 0 2.9-18.918 16.441 16.441 0 0 0 -21.9-11.38 24.308 24.308 0 0 0 -13.841 13.307l-16.91 39.778a24.662 24.662 0 0 0 -1.963 8.555l-30.044 61.968a18.926 18.926 0 0 1 -15.272 10.542l-2.2.2a26.693 26.693 0 0 0 -20 11.94l-15.76 23.866a12.909 12.909 0 0 0 4.821 18.568l42.558 22.114a12.91 12.91 0 0 0 17.965-6.728l10.47-26.614a26.7 26.7 0 0 0 -1.729-23.235l-1.105-1.914a18.923 18.923 0 0 1 -.153-18.555zm-13.595-17.478 16.885-39.715a16.473 16.473 0 0 1 9.146-8.947 10.488 10.488 0 0 1 3.438-.615 8.06 8.06 0 0 1 3.756.9 9.015 9.015 0 0 1 4.37 5.723 16.441 16.441 0 0 1 -2.028 12.569l-22.83 36.7a16.023 16.023 0 0 1 -5.633 5.529 5.277 5.277 0 0 1 -8.39-4.359 16.025 16.025 0 0 1 1.286-7.785zm-26.558 100.127 1.1 1.915a18.731 18.731 0 0 1 1.214 16.307l-10.471 26.614a4.906 4.906 0 0 1 -6.83 2.558l-42.559-22.113a4.907 4.907 0 0 1 -1.833-7.061l15.759-23.867a18.732 18.732 0 0 1 14.041-8.379l2.2-.2a26.969 26.969 0 0 0 21.76-15.02l26.278-54.2a12.6 12.6 0 0 0 8.364 4.346l-29.247 52.66a26.965 26.965 0 0 0 .224 26.44z"/><path d="m43.263 333.579a4 4 0 0 0 1.787.421h163.6a4 4 0 0 0 1.787-.421c25.849-12.906 26.584-31.989 24.722-42.216a8.1 8.1 0 0 0 -13.4-4.577l-.07.06a16.16 16.16 0 0 1 -8.367 3.7 37.288 37.288 0 0 0 -20.792 10.557 25.619 25.619 0 0 0 -3.143-7.5 10.687 10.687 0 0 0 -17.784-.7c-.794 1.11-1.675 2.242-2.618 3.364a36.928 36.928 0 0 1 -13.961 10.233c-1.545.648-3.03 1.236-4.376 1.752a19.7 19.7 0 0 0 -2.622-10.5c-5.9-10.3-19.73-13.452-20.315-13.58a4 4 0 0 0 -1.721 0c-.585.128-14.413 3.276-20.316 13.58a19.72 19.72 0 0 0 -2.622 10.5c-1.345-.516-2.829-1.1-4.375-1.752a36.94 36.94 0 0 1 -13.963-10.226c-.942-1.123-1.823-2.254-2.618-3.365a10.687 10.687 0 0 0 -17.783.7 25.619 25.619 0 0 0 -3.143 7.5 37.291 37.291 0 0 0 -20.793-10.557 16.172 16.172 0 0 1 -8.377-3.717l-.131-.113a8.1 8.1 0 0 0 -13.327 4.641c-1.864 10.227-1.128 29.31 24.721 42.216zm-16.851-40.779c.011-.066.017-.074.064-.09s.071-.009.123.035l.185.161a24.138 24.138 0 0 0 12.488 5.572c15.415 2.15 23.356 17.5 23.43 17.646a4 4 0 0 0 7.256-3.363 15.56 15.56 0 0 1 1.177-14.97 2.711 2.711 0 0 1 2.237-1.3 2.545 2.545 0 0 1 2.219 1.078c.914 1.278 1.923 2.575 3 3.854a44.986 44.986 0 0 0 17 12.459c6.1 2.557 11.158 4.194 11.37 4.262a4 4 0 0 0 5.032-5.041c-1.428-4.4-1.226-8.115.616-11.348 3.431-6.021 11.572-8.777 14.244-9.541 2.662.769 10.82 3.547 14.238 9.516 1.856 3.239 2.062 6.959.631 11.373a4 4 0 0 0 5.032 5.041c.212-.068 5.272-1.7 11.37-4.262a44.972 44.972 0 0 0 16.993-12.458c1.077-1.279 2.085-2.577 3-3.855a2.542 2.542 0 0 1 2.219-1.078 2.71 2.71 0 0 1 2.236 1.3 15.561 15.561 0 0 1 1.178 14.97 4 4 0 0 0 7.25 3.359c.077-.155 7.907-15.481 23.43-17.646a24.141 24.141 0 0 0 12.488-5.572l.095-.083.091-.079c.05-.044.072-.053.122-.034s.052.024.064.09c1.76 9.661-.254 23.2-19.6 33.2h-161.682c-19.343-9.996-21.356-23.539-19.596-33.196z"/><path d="m333.722 209.259a12.97 12.97 0 0 0 -4.33-13.433 13.2 13.2 0 0 0 -14.246-1.78l-63.331 30.273-23.784 11.37h-203.268a4 4 0 0 0 -4 3.808 58.611 58.611 0 0 0 2.237 20.286 26.673 26.673 0 0 0 9.719 14.354c.047.035.094.069.142.1.321.222 7.966 5.438 16.359 5.438h67.58a4 4 0 1 0 0-8h-67.585c-5.551 0-11.134-3.573-11.755-3.981a18.741 18.741 0 0 1 -6.746-10.017 49.691 49.691 0 0 1 -2.045-13.99h196.362a49.645 49.645 0 0 1 -2.044 13.99 18.973 18.973 0 0 1 -7.041 10.238c-.447.3-5.823 3.76-11.46 3.76h-40.372a4 4 0 0 0 0 8h40.372c8.422 0 15.733-4.988 16.039-5.2.03-.02.058-.04.086-.061a27.008 27.008 0 0 0 10.095-14.634 57.636 57.636 0 0 0 2.313-17.61l16.905-8.081.8 12.539.091 1.42-9.334 4.191a4 4 0 1 0 3.277 7.3l11.028-4.952c.08 0 .16.007.24.007 7.984 0 16.429-4.416 24.509-12.839a28.519 28.519 0 0 1 18.106-8.766l7.184-.613a32 32 0 0 0 18.964-8.16 30.75 30.75 0 0 0 8.933-14.957zm-14.365 9.079a23.969 23.969 0 0 1 -14.215 6.067l-7.185.614a36.508 36.508 0 0 0 -23.2 11.2c-4.024 4.194-9.818 9-16.04 10.131l-1.017-15.979 60.9-29.107a5.209 5.209 0 0 1 5.691.722 4.986 4.986 0 0 1 1.7 5.223 22.847 22.847 0 0 1 -6.634 11.129z"/><path d="m140.964 279.677a4 4 0 0 0 0-8h-3.052a4 4 0 0 0 0 8z"/><path d="m211.169 170.684a4 4 0 0 0 -5.394 1.705l-7.091 13.65a4 4 0 1 0 7.1 3.688l7.092-13.649a4 4 0 0 0 -1.707-5.394z"/><path d="m199.358 164.556a4 4 0 0 0 -5.491 1.359l-7.963 13.2a4 4 0 1 0 6.85 4.133l7.963-13.2a4 4 0 0 0 -1.359-5.492z"/><path d="m222.975 176.827a4 4 0 0 0 -5.275 2.045l-6.222 14.1a4 4 0 1 0 7.318 3.23l6.223-14.1a4 4 0 0 0 -2.044-5.275z"/><path d="m75.228 203.435a4 4 0 1 0 5.657-5.658l-3.876-3.877a4 4 0 0 0 -5.657 5.658z"/><path d="m86.677 214.883 3.875 3.876a4 4 0 1 0 5.657-5.656l-3.875-3.876a4 4 0 0 0 -5.657 5.656z"/><path d="m89.505 204.606a3.989 3.989 0 0 0 2.829-1.172l3.875-3.876a4 4 0 1 0 -5.657-5.656l-3.875 3.876a4 4 0 0 0 2.828 6.828z"/><path d="m71.352 218.76a4 4 0 0 0 5.657 0l3.876-3.876a4 4 0 1 0 -5.657-5.657l-3.876 3.873a4 4 0 0 0 0 5.66z"/><path d="m31.37 216.055a4 4 0 0 0 2.762-6.893l-4.7-4.487a4 4 0 0 0 -5.524 5.786l4.7 4.487a3.984 3.984 0 0 0 2.762 1.107z"/><path d="m141.269 222.4a4 4 0 0 0 5.631-.53l3.892-4.7a4 4 0 1 0 -6.162-5.1l-3.892 4.7a4 4 0 0 0 .531 5.63z"/><path d="m62.07 159.37a3.54 3.54 0 0 0 .5.6 4.081 4.081 0 0 0 .6.5 3.828 3.828 0 0 0 .69.37 4.3 4.3 0 0 0 .75.23 3.891 3.891 0 0 0 1.57 0 3.956 3.956 0 0 0 .74-.23 3.256 3.256 0 0 0 .69-.37 3.694 3.694 0 0 0 .61-.5 4.081 4.081 0 0 0 .5-.6 4.579 4.579 0 0 0 .37-.69 5.371 5.371 0 0 0 .23-.75 4.114 4.114 0 0 0 .07-.78 4.219 4.219 0 0 0 -.07-.79 4.87 4.87 0 0 0 -.23-.74 3.782 3.782 0 0 0 -.37-.69 4 4 0 0 0 -1.11-1.11 3.782 3.782 0 0 0 -.69-.37 4.87 4.87 0 0 0 -.74-.23 4.146 4.146 0 0 0 -1.57 0 5.371 5.371 0 0 0 -.75.23 4.579 4.579 0 0 0 -.69.37 4.081 4.081 0 0 0 -.6.5 4.049 4.049 0 0 0 -.87 1.3 3.956 3.956 0 0 0 -.23.74 4.234 4.234 0 0 0 -.08.79 4.129 4.129 0 0 0 .08.78 4.3 4.3 0 0 0 .23.75 3.828 3.828 0 0 0 .37.69z"/><path d="m140.6 179.53a3.519 3.519 0 0 0 -.37-.69 3.251 3.251 0 0 0 -.5-.61 4 4 0 0 0 -5.65 0 3.694 3.694 0 0 0 -.5.61 4.143 4.143 0 0 0 -.37.69 4.659 4.659 0 0 0 -.23.75 4.042 4.042 0 0 0 -.07.78 4.114 4.114 0 0 0 .07.78 4.99 4.99 0 0 0 .23.75 4.579 4.579 0 0 0 .37.69 4.161 4.161 0 0 0 .5.61 4.065 4.065 0 0 0 2.83 1.17 4.023 4.023 0 0 0 2.82-1.17 3.605 3.605 0 0 0 .5-.61 3.828 3.828 0 0 0 .37-.69 4.053 4.053 0 0 0 .23-.75 4.129 4.129 0 0 0 .08-.78 4.047 4.047 0 0 0 -.08-.78 3.832 3.832 0 0 0 -.23-.75z"/><path d="m18.88 271.73a4.129 4.129 0 0 0 .08-.78 3.995 3.995 0 0 0 -4.79-3.92 3.922 3.922 0 0 0 -.74.22 4.143 4.143 0 0 0 -.69.37 4.279 4.279 0 0 0 -.61.5 4 4 0 0 0 -1.17 2.83 4.114 4.114 0 0 0 .07.78 4.99 4.99 0 0 0 .23.75 4.579 4.579 0 0 0 .37.69 4.161 4.161 0 0 0 .5.61 3.639 3.639 0 0 0 .61.49 3.519 3.519 0 0 0 .69.37 3.956 3.956 0 0 0 .74.23 4.234 4.234 0 0 0 .79.08 3.914 3.914 0 0 0 3.32-1.78 3.828 3.828 0 0 0 .37-.69 4.053 4.053 0 0 0 .23-.75z"/><path d="m196.62 261.6a3.809 3.809 0 0 0 .75-.22 4.628 4.628 0 0 0 .69-.37 4.994 4.994 0 0 0 .61-.5 4.279 4.279 0 0 0 .5-.61 4.1 4.1 0 0 0 .36-.69 3.832 3.832 0 0 0 .23-.75 4.047 4.047 0 0 0 .08-.78 4.129 4.129 0 0 0 -.08-.78 4.053 4.053 0 0 0 -.23-.75 4.524 4.524 0 0 0 -.36-.69 4.919 4.919 0 0 0 -.5-.61 4.145 4.145 0 0 0 -.61-.49 4.033 4.033 0 0 0 -1.44-.6 3.926 3.926 0 0 0 -4.1 1.7 3.9 3.9 0 0 0 -.371.69 4.382 4.382 0 0 0 -.229.75 4.129 4.129 0 0 0 -.08.78 3.995 3.995 0 0 0 4 4 3.45 3.45 0 0 0 .78-.08z"/><path d="m183.43 222.86a4.008 4.008 0 1 0 2.83-1.17 4.025 4.025 0 0 0 -2.83 1.17z"/></svg>